<svg xmlns="http://www.w3.org/2000/svg" width="1600" height="900" viewBox="0 0 1600 900" role="img" aria-labelledby="title desc">
  <title id="title">People first AI-ready business hero image</title>
  <desc id="desc">A crisp 3P Solutions style business alignment graphic showing chaos turning into aligned People, Product, Profit, Planning, Processes, and Performance.</desc>
  <defs>
    <linearGradient id="bg" x1="0" x2="1" y1="0" y2="1">
      <stop offset="0" stop-color="#eef5f8"/>
      <stop offset="0.48" stop-color="#f8fbfc"/>
      <stop offset="1" stop-color="#dce9ee"/>
    </linearGradient>
    <linearGradient id="teal" x1="0" x2="1">
      <stop offset="0" stop-color="#00b8c8"/>
      <stop offset="1" stop-color="#06748a"/>
    </linearGradient>
    <filter id="shadow" x="-20%" y="-20%" width="140%" height="140%">
      <feDropShadow dx="0" dy="16" stdDeviation="16" flood-color="#0f172a" flood-opacity="0.18"/>
    </filter>
    <filter id="glow" x="-40%" y="-40%" width="180%" height="180%">
      <feGaussianBlur stdDeviation="5" result="blur"/>
      <feMerge>
        <feMergeNode in="blur"/>
        <feMergeNode in="SourceGraphic"/>
      </feMerge>
    </filter>
  </defs>

  <rect width="1600" height="900" fill="url(#bg)"/>
  <circle cx="800" cy="450" r="330" fill="none" stroke="#a9dfe8" stroke-width="2" opacity="0.45"/>
  <circle cx="800" cy="450" r="265" fill="none" stroke="#cdebf0" stroke-width="8" opacity="0.55"/>

  <g opacity="0.85">
    <path d="M85 200 C190 250, 270 255, 390 335" fill="none" stroke="#0f172a" stroke-width="2" opacity="0.45"/>
    <path d="M70 520 C180 480, 285 505, 405 445" fill="none" stroke="#0f172a" stroke-width="2" opacity="0.45"/>
    <path d="M110 690 C190 610, 280 610, 405 565" fill="none" stroke="#0f172a" stroke-width="2" opacity="0.45"/>
    <g fill="#0f172a">
      <circle cx="90" cy="200" r="8"/><circle cx="170" cy="245" r="7"/><circle cx="255" cy="255" r="9"/><circle cx="340" cy="306" r="8"/>
      <circle cx="75" cy="520" r="10"/><circle cx="185" cy="480" r="8"/><circle cx="285" cy="505" r="10"/><circle cx="370" cy="450" r="8"/>
      <circle cx="110" cy="690" r="9"/><circle cx="195" cy="610" r="7"/><circle cx="295" cy="610" r="9"/><circle cx="385" cy="565" r="8"/>
    </g>
    <g fill="#ffffff" stroke="#94a3b8" stroke-width="2" filter="url(#shadow)">
      <rect x="120" y="235" width="190" height="54" rx="8" transform="rotate(-8 120 235)"/>
      <rect x="95" y="410" width="235" height="54" rx="8" transform="rotate(6 95 410)"/>
      <rect x="135" y="595" width="230" height="54" rx="8" transform="rotate(-5 135 595)"/>
    </g>
    <g font-family="Arial, Helvetica, sans-serif" font-weight="800" font-size="25" fill="#0f172a" text-anchor="middle">
      <text x="216" y="267" transform="rotate(-8 216 267)">TRIBAL KNOWLEDGE</text>
      <text x="213" y="444" transform="rotate(6 213 444)">OUTDATED PROCESSES</text>
      <text x="250" y="628" transform="rotate(-5 250 628)">UNCLEAR ROLES</text>
    </g>
  </g>

  <g filter="url(#glow)">
    <path d="M390 450 C500 410, 530 410, 590 410" fill="none" stroke="#00b8c8" stroke-width="5" opacity="0.75"/>
    <path d="M390 450 C500 450, 530 450, 590 450" fill="none" stroke="#00b8c8" stroke-width="5" opacity="0.95"/>
    <path d="M390 450 C500 490, 530 490, 590 490" fill="none" stroke="#00b8c8" stroke-width="5" opacity="0.75"/>
    <path d="M1010 410 C1110 410, 1160 390, 1235 350" fill="none" stroke="#00b8c8" stroke-width="5" opacity="0.75"/>
    <path d="M1010 450 C1110 450, 1160 450, 1235 450" fill="none" stroke="#00b8c8" stroke-width="5" opacity="0.95"/>
    <path d="M1010 490 C1110 490, 1160 520, 1235 560" fill="none" stroke="#00b8c8" stroke-width="5" opacity="0.75"/>
  </g>

  <g filter="url(#shadow)" font-family="Arial, Helvetica, sans-serif">
    <g transform="translate(540 160)">
      <rect width="160" height="160" rx="24" fill="#ffffff" stroke="#d7e6ec" stroke-width="3"/>
      <circle cx="55" cy="55" r="16" fill="#07859a"/><circle cx="80" cy="50" r="20" fill="#07859a"/><circle cx="105" cy="55" r="16" fill="#07859a"/>
      <path d="M42 98 Q80 70 118 98 V122 H42 Z" fill="#07859a"/>
      <text x="80" y="145" font-size="28" font-weight="900" fill="#0f172a" text-anchor="middle">PEOPLE</text>
    </g>
    <g transform="translate(720 160)">
      <rect width="160" height="160" rx="24" fill="#ffffff" stroke="#d7e6ec" stroke-width="3"/>
      <path d="M80 34 L124 58 L80 82 L36 58 Z" fill="none" stroke="#07859a" stroke-width="8"/>
      <path d="M36 58 V106 L80 130 V82" fill="none" stroke="#07859a" stroke-width="8"/>
      <path d="M124 58 V106 L80 130" fill="none" stroke="#07859a" stroke-width="8"/>
      <text x="80" y="145" font-size="28" font-weight="900" fill="#0f172a" text-anchor="middle">PRODUCT</text>
    </g>
    <g transform="translate(900 160)">
      <rect width="160" height="160" rx="24" fill="#ffffff" stroke="#d7e6ec" stroke-width="3"/>
      <rect x="43" y="92" width="18" height="32" fill="#07859a"/><rect x="72" y="74" width="18" height="50" fill="#07859a"/><rect x="101" y="52" width="18" height="72" fill="#07859a"/>
      <path d="M42 70 L68 56 L88 63 L118 32" fill="none" stroke="#07859a" stroke-width="8" stroke-linecap="round"/>
      <path d="M108 31 H122 V46" fill="none" stroke="#07859a" stroke-width="8" stroke-linecap="round"/>
      <text x="80" y="145" font-size="28" font-weight="900" fill="#0f172a" text-anchor="middle">PROFIT</text>
    </g>
    <g transform="translate(540 340)">
      <rect width="160" height="160" rx="24" fill="#ffffff" stroke="#d7e6ec" stroke-width="3"/>
      <path d="M45 43 H112 V123 H45 Z" fill="none" stroke="#07859a" stroke-width="7"/>
      <path d="M57 63 L68 74 L88 52 M57 88 L68 99 L88 77" fill="none" stroke="#07859a" stroke-width="7" stroke-linecap="round"/>
      <text x="80" y="145" font-size="26" font-weight="900" fill="#0f172a" text-anchor="middle">PLANNING</text>
    </g>
    <g transform="translate(720 340)">
      <rect width="160" height="160" rx="24" fill="#ffffff" stroke="#d7e6ec" stroke-width="3"/>
      <circle cx="67" cy="78" r="31" fill="none" stroke="#07859a" stroke-width="13"/>
      <circle cx="105" cy="96" r="23" fill="none" stroke="#07859a" stroke-width="11"/>
      <text x="80" y="145" font-size="25" font-weight="900" fill="#0f172a" text-anchor="middle">PROCESSES</text>
    </g>
    <g transform="translate(900 340)">
      <rect width="160" height="160" rx="24" fill="#ffffff" stroke="#d7e6ec" stroke-width="3"/>
      <path d="M80 38 A45 45 0 1 0 125 83 H80 Z" fill="#07859a" opacity="0.9"/>
      <path d="M83 34 V78 H128 A45 45 0 0 0 83 34 Z" fill="none" stroke="#0f172a" stroke-width="5" opacity="0.35"/>
      <text x="80" y="145" font-size="22" font-weight="900" fill="#0f172a" text-anchor="middle">PERFORMANCE</text>
    </g>
    <g transform="translate(540 520)">
      <rect width="160" height="160" rx="24" fill="#ffffff" stroke="#d7e6ec" stroke-width="3"/>
      <text x="80" y="68" font-size="54" font-weight="900" fill="#07859a" text-anchor="middle">1st</text>
      <text x="80" y="115" font-size="27" font-weight="900" fill="#0f172a" text-anchor="middle">PEOPLE</text>
      <text x="80" y="145" font-size="27" font-weight="900" fill="#0f172a" text-anchor="middle">FIRST</text>
    </g>
    <g transform="translate(720 520)">
      <rect width="160" height="160" rx="24" fill="#ffffff" stroke="#d7e6ec" stroke-width="3"/>
      <circle cx="80" cy="76" r="36" fill="none" stroke="#07859a" stroke-width="8"/>
      <path d="M80 40 V112 M44 76 H116 M56 52 L104 100 M104 52 L56 100" stroke="#07859a" stroke-width="7"/>
      <text x="80" y="145" font-size="28" font-weight="900" fill="#0f172a" text-anchor="middle">AI-READY</text>
    </g>
    <g transform="translate(900 520)">
      <rect width="160" height="160" rx="24" fill="#ffffff" stroke="#d7e6ec" stroke-width="3"/>
      <circle cx="80" cy="78" r="42" fill="none" stroke="#07859a" stroke-width="9"/>
      <path d="M80 78 L110 48 M110 48 H92 M110 48 V66" stroke="#07859a" stroke-width="9" stroke-linecap="round"/>
      <text x="80" y="137" font-size="23" font-weight="900" fill="#0f172a" text-anchor="middle">STRONGER</text>
      <text x="80" y="162" font-size="23" font-weight="900" fill="#0f172a" text-anchor="middle">BUSINESS</text>
    </g>
  </g>

  <g font-family="Arial, Helvetica, sans-serif" font-weight="900" fill="#ffffff" filter="url(#shadow)">
    <rect x="1245" y="245" width="250" height="62" rx="10" fill="#07859a"/>
    <rect x="1265" y="385" width="255" height="62" rx="10" fill="#07859a"/>
    <rect x="1245" y="525" width="260" height="62" rx="10" fill="#07859a"/>
    <text x="1370" y="284" font-size="28" text-anchor="middle">ALIGNED TEAMS</text>
    <text x="1392" y="424" font-size="26" text-anchor="middle">BETTER CX</text>
    <text x="1375" y="564" font-size="26" text-anchor="middle">HEALTHIER PROFIT</text>
  </g>

  <text x="800" y="810" font-family="Arial, Helvetica, sans-serif" font-size="42" font-weight="900" fill="#0f172a" text-anchor="middle">AI-readiness is business-readiness.</text>
  <text x="800" y="858" font-family="Arial, Helvetica, sans-serif" font-size="30" font-weight="700" fill="#0f5870" text-anchor="middle">A stronger business supports its people better.</text>
</svg>
